<svg version="1.1" id="Layer_1" xmlns="http://www.w3.org/2000/svg" xmlns:xlink="http://www.w3.org/1999/xlink" x="0px" y="0px"
	 width="100%" viewBox="0 0 500 500" enable-background="new 0 0 500 500" xml:space="preserve">
<path fill="#000000" opacity="1.000000" stroke="none" 
	d="
M253.000000,501.000000 
	C170.000015,501.000000 87.500000,500.972809 5.000203,501.095978 
	C1.576005,501.101105 0.903036,500.423828 0.905301,497.000000 
	C1.013778,333.000092 1.013773,169.000122 0.905334,5.000241 
	C0.903071,1.576928 1.575812,0.903022 4.999882,0.905287 
	C168.999756,1.013774 332.999725,1.013761 496.999634,0.905353 
	C500.422668,0.903090 501.096985,1.575440 501.094727,4.999763 
	C500.986206,168.999649 500.986237,332.999603 501.094604,496.999512 
	C501.096893,500.422272 500.425507,501.101318 497.000275,501.096100 
	C415.833649,500.972321 334.666809,501.000000 253.000000,501.000000 
z"/>
<path fill="#E0E2E3" opacity="1.000000" stroke="none" 
	d="
M253.092194,286.391174 
	C266.154327,275.342773 279.140503,264.607788 292.202667,253.966080 
	C294.260986,252.289169 295.792450,250.595047 295.426849,247.372375 
	C298.411377,246.262817 298.933624,248.479721 299.385101,250.303848 
	C300.429382,254.523529 302.651672,257.812531 306.203308,260.297302 
	C308.333099,261.787323 309.330566,264.083679 310.253632,266.812988 
	C302.718414,274.547089 294.334106,281.074402 285.773010,287.361786 
	C283.322998,289.161072 283.280548,290.408020 284.927795,292.873230 
	C296.745087,310.558289 308.413361,328.343170 320.083313,346.126312 
	C324.270996,352.507629 328.332977,358.971497 332.577942,365.697021 
	C331.537781,367.421234 330.342072,368.825134 329.278320,370.733948 
	C314.842804,356.808990 300.674805,342.658691 286.366638,328.214600 
	C280.153656,318.475189 272.197113,310.662628 264.325043,302.791351 
	C259.614349,298.081177 255.392685,293.079071 253.092194,286.391174 
z"/>
<path fill="#D4D7DA" opacity="1.000000" stroke="none" 
	d="
M209.191284,356.190460 
	C206.056793,353.458893 203.358536,350.764191 200.480392,348.277679 
	C198.464279,346.535950 199.031967,344.319824 199.027130,342.249542 
	C198.980850,322.426239 198.948792,302.602386 199.066040,282.779663 
	C199.083069,279.899384 198.599396,277.564514 196.196808,275.828583 
	C191.758728,272.622009 190.162994,268.375153 190.875687,262.902588 
	C191.345474,259.295380 191.019669,255.584564 191.134064,251.458145 
	C194.002197,249.797745 195.061554,251.986435 196.184158,253.692093 
	C197.631104,255.890533 198.883362,258.219635 200.238220,260.481964 
	C202.772354,264.713409 206.141205,267.424591 211.272552,267.762390 
	C216.741928,268.122375 216.462234,272.840332 217.818680,276.739990 
	C218.166428,299.026093 218.244278,321.048523 218.191071,343.522095 
	C218.152222,345.606781 217.696121,347.196594 217.763885,348.843933 
	C218.053360,355.882233 216.516037,357.250031 209.191284,356.190460 
z"/>
<path fill="#F3F5F5" opacity="1.000000" stroke="none" 
	d="
M295.729248,211.313110 
	C294.278809,204.227295 295.397308,198.930801 301.646912,194.342300 
	C308.523651,189.293411 314.604797,183.104248 322.194305,177.149612 
	C322.194305,203.448700 322.194305,228.765259 322.092255,254.540741 
	C319.414276,256.225464 319.211456,254.155151 318.862518,252.609741 
	C318.423767,250.666779 318.594391,248.632523 318.149323,246.667114 
	C317.299835,242.915726 315.791992,239.983688 311.693970,238.577988 
	C306.684082,236.859482 304.795868,232.080826 302.680847,227.746399 
	C300.125885,222.510376 298.754120,216.768417 295.729248,211.313110 
z"/>
<path fill="#E0E2E3" opacity="1.000000" stroke="none" 
	d="
M196.692627,227.100327 
	C209.372345,217.198868 221.834763,207.624405 234.644455,198.012817 
	C236.666840,201.175934 237.844376,204.602356 240.023392,207.585495 
	C241.729935,209.921799 241.251038,212.661789 239.956696,215.581970 
	C233.545975,220.915924 227.365204,226.083084 220.810883,230.722458 
	C218.845718,232.113464 218.297104,233.281693 218.321381,235.426346 
	C218.407547,243.038055 218.343658,250.651459 218.210968,258.652344 
	C214.801178,258.635040 215.270096,255.701462 214.893326,253.727905 
	C214.160141,249.887466 212.729340,247.373032 208.364807,247.036987 
	C205.243668,246.796661 202.981644,244.668381 201.179733,242.176300 
	C199.145477,239.362869 197.785507,236.142639 195.742569,233.311676 
	C194.329147,231.353073 194.820999,229.216827 196.692627,227.100327 
z"/>
<path fill="#F7F7F7" opacity="1.000000" stroke="none" 
	d="
M279.680603,164.151459 
	C291.773254,154.738052 303.487427,145.499359 315.553436,136.745651 
	C320.934113,132.842026 325.674469,128.185837 331.150696,124.452728 
	C332.259521,123.696838 333.550446,121.909348 334.960266,123.245293 
	C336.370300,124.581436 334.628510,125.780365 333.953491,127.017746 
	C330.424835,133.485947 325.987122,139.416031 322.875946,146.139130 
	C320.249054,151.815674 316.174469,156.151749 310.856750,159.677200 
	C301.647736,165.782364 294.303009,174.334824 284.494659,180.285873 
	C281.439301,175.466187 276.433289,171.185822 279.680603,164.151459 
z"/>
<path fill="#DADBDD" opacity="1.000000" stroke="none" 
	d="
M196.576508,226.869705 
	C195.266037,234.552673 203.118729,245.230545 211.211884,245.944443 
	C213.648956,246.159409 214.784546,247.186737 215.282059,249.427795 
	C215.959747,252.480453 216.760590,255.505768 217.796997,258.791626 
	C218.166290,264.724823 218.247223,270.409241 218.208359,276.548645 
	C217.767807,276.923798 217.188065,276.891357 217.163483,276.757202 
	C216.005280,270.438171 211.432785,269.027191 205.885483,267.727905 
	C200.443680,266.453369 198.928238,260.569122 196.184769,256.319763 
	C194.942566,254.395721 194.399414,251.957764 191.553406,251.045807 
	C191.082291,248.627029 190.946548,246.257904 190.776337,243.287094 
	C187.554382,245.002945 184.740738,246.501328 181.576721,248.050186 
	C176.892593,248.677658 176.301819,246.031906 176.745026,242.266510 
	C183.376266,236.899902 189.809677,231.932999 196.576508,226.869705 
z"/>
<path fill="#EDEFF0" opacity="1.000000" stroke="none" 
	d="
M295.420227,211.434174 
	C298.307190,210.930466 298.458832,213.173065 299.148712,215.007126 
	C301.366486,220.903320 303.381226,226.879608 306.638000,232.342178 
	C307.965363,234.568512 309.450104,236.929367 311.939087,237.325974 
	C319.154633,238.475739 318.847687,244.311005 319.991272,249.316254 
	C320.409698,251.147583 319.062073,253.372025 321.605530,254.908157 
	C322.940369,257.566467 321.448029,259.030609 319.601685,260.366302 
	C316.687378,262.474579 313.794220,264.612061 310.637939,266.947388 
	C306.483521,261.419800 299.111206,258.229340 298.062469,250.412094 
	C297.877350,249.032379 297.611816,247.795929 295.890137,247.064240 
	C295.472961,235.285690 295.383667,223.587250 295.420227,211.434174 
z"/>
<path fill="#EDEFF0" opacity="1.000000" stroke="none" 
	d="
M240.181946,215.814438 
	C241.962982,209.181732 234.383743,205.157013 234.998230,198.390564 
	C242.723206,191.920517 250.454681,185.865356 258.513702,179.678757 
	C259.476288,183.570984 260.059326,187.485992 262.770081,190.946350 
	C264.076050,192.613480 263.746429,195.343506 262.275940,197.814682 
	C254.971832,204.116730 247.066330,209.078293 240.181946,215.814438 
z"/>
<path fill="#F3F5F5" opacity="1.000000" stroke="none" 
	d="
M262.386658,198.067505 
	C261.927917,193.993851 262.768860,189.849091 257.981689,186.980301 
	C255.278503,185.360382 259.020874,182.681427 258.859253,179.941101 
	C265.643250,174.354111 272.445282,169.160919 279.581573,163.873505 
	C280.249176,167.854507 278.907623,172.337006 283.369873,175.346619 
	C284.183838,175.895584 283.873962,178.110855 284.125610,179.989929 
	C277.457886,186.815002 269.858093,192.122070 262.386658,198.067505 
z"/>
<path fill="#CBCCCE" opacity="1.000000" stroke="none" 
	d="
M176.606323,241.953064 
	C176.937210,244.593140 178.151306,246.603149 180.868210,248.020767 
	C168.517487,256.417847 154.520935,262.307953 140.703476,268.804626 
	C152.558929,259.882874 164.414368,250.961105 176.606323,241.953064 
z"/>
<path fill="#DADBDD" opacity="1.000000" stroke="none" 
	d="
M252.818695,286.132050 
	C256.983612,291.723877 260.474915,297.598145 265.673798,302.311768 
	C272.889404,308.853851 279.017303,316.457092 285.270294,323.909729 
	C286.073944,324.867584 286.972473,325.980103 286.429016,327.693115 
	C274.069611,315.896301 261.839996,303.944031 249.800171,291.803558 
	C246.162201,288.135132 251.786728,288.193634 252.818695,286.132050 
z"/>
<path fill="#DADBDD" opacity="1.000000" stroke="none" 
	d="
M329.133850,371.274170 
	C329.008881,368.716431 328.698547,366.288971 332.338928,366.002136 
	C337.425232,372.556763 342.401764,378.962463 345.585083,386.457001 
	C345.223938,386.781494 344.862762,387.106018 344.501617,387.430511 
	C339.420044,382.150055 334.338470,376.869568 329.133850,371.274170 
z"/>
<path fill="#E0E2E3" opacity="1.000000" stroke="none" 
	d="
M208.955017,356.367371 
	C209.915756,355.771484 211.057068,355.097656 212.073563,355.251068 
	C216.441376,355.910065 217.337936,353.253937 216.729431,350.033051 
	C216.325928,347.897400 216.717911,346.219055 217.783844,344.198761 
	C218.150452,350.228516 218.235992,356.483826 218.334152,362.738922 
	C218.366150,364.776764 217.741302,365.194397 216.131439,363.310150 
	C215.731369,361.594330 215.883209,359.852478 213.315079,360.019073 
	C211.685455,358.912262 210.381805,357.791138 208.955017,356.367371 
z"/>
<path fill="#D4D7DA" opacity="1.000000" stroke="none" 
	d="
M213.090469,360.328247 
	C213.614441,358.846527 214.507233,357.616760 215.905457,358.338593 
	C217.711914,359.271271 217.071747,360.991852 216.276398,362.752197 
	C215.069580,362.205597 214.130707,361.414368 213.090469,360.328247 
z"/>
<path fill="#CBCCCE" opacity="1.000000" stroke="none" 
	d="
M335.761169,121.404419 
	C336.400665,120.720390 336.909851,120.457428 337.419067,120.194466 
	C337.523193,120.577255 337.833466,121.079170 337.693665,121.321060 
	C337.228088,122.126915 336.620941,122.926071 335.761169,121.404419 
z"/>
</svg>